<svg xmlns="http://www.w3.org/2000/svg" width="96" height="96" viewBox="0 0 96 96">

    <g transform="translate(0.001 0.001)">
        <rect class="svg-icon_file-a" style="opacity: 0" fill="#003574" width="96" height="96" transform="translate(-0.001 -0.001)"/>
        <g transform="translate(20.001 16.001)">
            <path class="svg-icon_file-b"
                  fill="#003574"
                  d="M24.006,4a16.022,16.022,0,0,0-16,16.007v3.984a16,16,0,1,0,32,0V20.007A16.022,16.022,0,0,0,24.006,4Zm12,19.991a12,12,0,1,1-24,0V20.007a12,12,0,1,1,24,0Z"
                  transform="translate(4.02 -4)"/>
            <path class="svg-icon_file-b"
                  fill="#003574"
                  d="M44.993,18.7h0a24.545,24.545,0,0,1-3.74,1.9,23.069,23.069,0,0,1-4.024,1.232,22.064,22.064,0,0,1-4.236.444,21.965,21.965,0,0,1-4.232-.456,22.6,22.6,0,0,1-4.02-1.236A24.478,24.478,0,0,1,21,18.695l-.22-.048s-8.459,4.384-8.8,4.6a6.705,6.705,0,0,0-1.232.968,5.685,5.685,0,0,0-1.536,2.532A5.94,5.94,0,0,0,9,28.214l0,6.032a4.021,4.021,0,0,1-4,4.032l0-10.1a9.8,9.8,0,0,1,.364-2.512,9.645,9.645,0,0,1,2.58-4.3,10.9,10.9,0,0,1,1.928-1.52l11.335-5.932,1.012.784.416.288.48.308a20.3,20.3,0,0,0,3.128,1.584,18.82,18.82,0,0,0,3.34,1.028A17.958,17.958,0,0,0,33,18.275a17.947,17.947,0,0,0,3.416-.36,18.868,18.868,0,0,0,3.336-1.024,20.24,20.24,0,0,0,3.12-1.588l.484-.308.412-.292,1.012-.8s11.151,5.812,11.335,5.924a10.8,10.8,0,0,1,1.952,1.524,9.583,9.583,0,0,1,2.572,4.312A9.957,9.957,0,0,1,61,28.17V38.277a4.016,4.016,0,0,1-4-4.032l0-6.032a5.794,5.794,0,0,0-.212-1.476,5.54,5.54,0,0,0-1.52-2.528,10.191,10.191,0,0,0-2.892-1.836l-7.156-3.728-.22.052"
                  transform="translate(-5 25.718)"/>
        </g>
    </g>
</svg>
