<svg version="1.1" xmlns="http://www.w3.org/2000/svg" xmlns:xlink="http://www.w3.org/1999/xlink" x="0px" y="0px"
     viewBox="0 0 1000 1000" fill="#003574" enable-background="new 0 0 1000 1000" xml:space="preserve" width="15" height="15">
    <g><path d="M524.1,500L985,39.1c6.7-6.7,6.7-17.4,0-24.1c-6.7-6.7-17.4-6.7-24.1,0L500,475.9L39.1,15C32.4,8.4,21.6,8.4,15,15c-6.7,6.7-6.7,17.4,0,24.1L475.9,500L15,960.9c-6.7,6.7-6.7,17.4,0,24.1c3.3,3.3,7.7,5,12,5c4.4,0,8.7-1.7,12-5L500,524.1L960.9,985c3.3,3.3,7.7,5,12,5s8.7-1.7,12-5c6.7-6.7,6.7-17.4,0-24.1L524.1,500z"/></g>
</svg>
