<svg xmlns="http://www.w3.org/2000/svg" width="96" height="96" viewBox="0 0 96 96">
    <defs>
        <style>.a, .b {
            fill: #cad2de;
        }

        .a {
            opacity: 0;
        }</style>
    </defs>
    <rect class="a" width="96" height="96"/>
    <path class="b"
          d="M57.22,17.113H37.856L34.928,3.2h-7.26L24.816,17.113H5.54V53.089H16.928l-3.6,19.76,3.944.716,1.888-10.356H43.456l1.876,10.356,3.944-.716-3.6-19.76H57.22V17.113Zm-26.28-9.9h.74l2.084,9.9H28.908ZM53.212,21.117v14.52l-7.744-4.644L21.44,41l-11.9-6.8V21.117ZM9.544,38.773l18.04,10.308H9.544ZM42.72,59.205H19.884L21,53.089H41.608ZM35.58,49.081l-9.788-5.6,19.348-8.06,8.072,4.844v8.812ZM19.3,29.193a4.046,4.046,0,1,1,4.048,4.048A4.049,4.049,0,0,1,19.3,29.193Z"
          transform="translate(16.62 9.615)"/>
</svg>
