<svg xmlns="http://www.w3.org/2000/svg" width="96" height="96" viewBox="0 0 96 96">
    <path fill="#003574"
          d="M60.021,7.582H12.061a8.017,8.017,0,0,0-8.02,8.02v27.96a8.019,8.019,0,0,0,8.02,8.02h47.96a8.022,8.022,0,0,0,8.02-8.02V15.6A8.019,8.019,0,0,0,60.021,7.582Zm4.02,36.012a3.986,3.986,0,0,1-3.988,3.988H12.025a3.985,3.985,0,0,1-3.984-3.988V15.566a3.984,3.984,0,0,1,3.984-3.984H60.053a3.985,3.985,0,0,1,3.988,3.984Z"
          transform="translate(12.123 22.746)"/>
    <path fill="#003574"
          d="M22.05,30.582a10,10,0,1,0-10-10A10.009,10.009,0,0,0,22.05,30.582Zm0-16a6,6,0,1,1-6,6A6.007,6.007,0,0,1,22.05,14.582Z"
          transform="translate(36.15 31.746)"/>
    <path fill="#003574" d="M13.978,9.593h.08a4,4,0,0,0,4-4H9.978a4,4,0,0,0-4,4h8Z" transform="translate(17.934 16.779)"/>
    <path fill="#003574" d="M9.978,13.583h12.08a4,4,0,0,0,4-4H9.978a4,4,0,0,0-4,4Z" transform="translate(17.934 28.749)"/>
    <rect fill="rgba(0, 53, 116, 0)" width="96" height="96" transform="translate(0 0)"/>
</svg>
